<svg width="206" height="206" viewBox="0 0 206 206" fill="none" xmlns="http://www.w3.org/2000/svg">
<path fill-rule="evenodd" clip-rule="evenodd" d="M188.021 85.8845C181.405 75.346 176.721 64.017 173.94 51.8977C171.159 39.7784 163.694 32.3136 151.575 29.5326C139.456 26.7516 128.127 22.0679 117.588 15.452C107.05 8.83615 96.511 8.83615 85.9725 15.452C75.434 22.0679 64.1051 26.7516 51.9858 29.5326C39.8664 32.3136 32.4017 39.7784 29.6207 51.8977C26.8397 64.017 22.1559 75.346 15.54 85.8845C8.92416 96.423 8.92416 106.962 15.54 117.5C22.1559 128.039 26.8397 139.368 29.6207 151.487C32.4017 163.606 39.8664 171.071 51.9858 173.852C64.1051 176.633 75.434 181.317 85.9725 187.933C96.511 194.548 107.05 194.548 117.588 187.933C128.127 181.317 139.456 176.633 151.575 173.852C163.694 171.071 171.159 163.606 173.94 151.487C176.721 139.368 181.405 128.039 188.021 117.5C194.636 106.962 194.636 96.423 188.021 85.8845ZM101.78 166.065C92.0611 166.065 82.8692 163.928 74.614 160.064C53.537 159.83 48.0921 155.79 45.7209 153.916C43.2912 152.014 45.1354 148.94 45.1354 148.94C45.1354 148.94 47.3895 146.188 49.2337 143.378C50.1998 141.943 50.2291 140.802 50.0534 140.07C42.0617 129.326 37.3194 116.007 37.3194 101.575C37.3194 65.9782 66.1832 37.1143 101.78 37.1143C137.377 37.1143 166.241 65.9782 166.241 101.575C166.241 137.172 137.377 166.065 101.78 166.065Z" fill="#E0E0E0"/>
<path fill-rule="evenodd" clip-rule="evenodd" d="M101.781 46.8042C71.5118 46.8042 46.9805 71.3356 46.9805 101.605C46.9805 115.919 52.4839 128.975 61.4709 138.724C62.115 140.275 62.2613 142.002 60.944 143.407C57.7532 146.832 55.4113 147.447 55.9675 148.969C56.5237 150.462 61.5588 151.633 75.2881 149.613C83.1335 153.975 92.179 156.434 101.781 156.434C132.05 156.434 156.581 131.903 156.581 101.634C156.581 71.3648 132.05 46.8042 101.781 46.8042Z" fill="#E0E0E0"/>
</svg>
